Coordinates
version=1
nRows=12
nColumns=33
inDegrees=yes

Units are S.I. units (second, meters, Newtons, ...)
Angles are in degrees.

endheader
time	ground_thorax_rot_x	ground_thorax_rot_y	ground_thorax_rot_z	ground_thorax_tx	ground_thorax_ty	ground_thorax_tz	clav_prot_r	clav_elev_r	scapula_abduction_r	scapula_elevation_r	scapula_upward_rot_r	scapula_winging_r	shoulder_elv_r	plane_of_elev_r	axial_rot_r	elbow_flexion_r	pro_sup_r	wrist_flex_r	wrist_dev_r	clav_prot_l	clav_elev_l	scapula_abduction_l	scapula_elevation_l	scapula_upward_rot_l	scapula_winging_l	shoulder_elv_l	plane_of_elev_l	axial_rot_l	elbow_flexion_l	pro_sup_l	wrist_flex_l	wrist_dev_l
      4.08000000	    -90.00000000	     90.00000000	    -90.00000000	     69.22395386	    780.69661631	    -41.44880811	     25.65692363	     37.72709424	     45.00000000	     45.00000000	      8.43420064	  -2195.29980136	  -2411.57632983	     31.70903701	    -48.42052850	   1440.71742946	    169.28050648	     11.97891638	     13.25123442	    -45.00000000	     23.77993107	     45.00000000	    -20.61484419	    -45.00000000	  -2051.81787419	  -1342.92850950	     12.04628349	    -70.26883622	   3229.77757535	     42.79487394	     12.09004743	    -14.69645969
      4.09000000	    -90.00000000	     90.00000000	    -90.00000000	     69.51415201	    780.16186636	    -41.61931741	     25.88923825	     37.48816556	     45.00000000	     45.00000000	      8.46058214	  -2195.46339481	  -2411.52780705	     31.97177365	    -47.71347818	   1440.57558377	    169.55717340	     11.86848472	     13.00391705	    -45.00000000	     23.75674167	     45.00000000	    -20.68937789	    -45.00000000	  -2052.06073435	  -1342.79690862	     11.89592708	    -71.01071849	   3229.83505879	     42.85447788	     11.69868499	    -14.59646981
      4.10000000	    -90.00000000	     90.00000000	    -90.00000000	     69.49686840	    779.77282713	    -41.75017759	     25.76143931	     37.64760255	     45.00000000	     45.00000000	      8.58130390	  -2195.13403298	  -2411.53168134	     31.71598546	    -47.29020822	   1440.78355728	    169.79517389	     12.11345539	     13.27098889	    -45.00000000	     23.66329974	     45.00000000	    -20.54366443	    -45.00000000	  -2052.11346268	  -1342.54212121	     12.03764060	    -70.56376102	   3229.86595697	     42.98260906	     12.15617771	    -15.11595481
      4.11000000	    -90.00000000	     90.00000000	    -90.00000000	     69.18538873	    779.50739428	    -41.83152743	     25.90520103	     37.42370832	     45.00000000	     45.00000000	      8.66991068	  -2195.47839208	  -2411.53293655	     32.22315568	    -46.68730449	   1440.58502749	    170.16731179	     11.77286744	     12.72877088	    -45.00000000	     23.47893089	     45.00000000	    -20.59830618	    -45.00000000	  -2052.37918391	  -1342.53596412	     11.77841544	    -71.47111812	   3229.96560948	     43.28000815	     11.09881697	    -14.54331500
      4.12000000	    -90.00000000	     90.00000000	    -90.00000000	     68.57339782	    779.32392203	    -41.86568795	     25.86178640	     37.50706796	     45.00000000	     45.00000000	      8.82103695	  -2195.11411977	  -2411.60429201	     31.97883651	    -46.26033831	   1440.89830592	    170.41591495	     12.08089634	     12.97544937	    -45.00000000	     23.36791705	     45.00000000	    -20.54948721	    -45.00000000	  -2052.42378444	  -1342.34000883	     12.06522596	    -71.09229326	   3230.07290617	     43.58548905	     11.69095855	    -15.10572326
      4.13000000	    -90.00000000	     90.00000000	    -90.00000000	     67.70477332	    779.21469374	    -41.84959532	     25.89387005	     37.41674608	     45.00000000	     45.00000000	      8.85327834	  -2194.81891331	  -2411.45829210	     31.96256250	    -45.42913950	   1440.77329212	    170.76643940	     11.89983510	     13.07324899	    -45.00000000	     23.33354792	     45.00000000	    -20.39999330	    -45.00000000	  -2052.88575483	  -1341.79027769	     11.61621956	    -71.21932314	   3230.29864214	     43.77735806	     11.51193770	    -15.73728842
      4.14000000	    -90.00000000	     90.00000000	    -90.00000000	     66.59197484	    779.15102609	    -41.79082332	     25.93820348	     37.40370062	     45.00000000	     45.00000000	      9.20903840	  -2194.84792918	  -2411.72141313	     32.14901198	    -45.11537998	   1441.02347396	    170.91476822	     12.20784025	     12.89145404	    -45.00000000	     23.14929119	     45.00000000	    -20.35976576	    -45.00000000	  -2052.67044446	  -1341.84996209	     12.10217341	    -71.39497021	   3230.29502673	     44.17644784	     11.60176684	    -15.37222474
      4.15000000	    -90.00000000	     90.00000000	    -90.00000000	     65.26219694	    779.11405100	    -41.69718118	     25.93569915	     37.35175085	     45.00000000	     45.00000000	      9.27345829	  -2194.35255759	  -2411.55716806	     31.96963884	    -44.25967098	   1440.86504734	    171.20706168	     12.00124777	     12.83536234	    -45.00000000	     22.84850792	     45.00000000	    -20.41214219	    -45.00000000	  -2053.40541614	  -1341.65198300	     11.67704105	    -71.58797281	   3230.10476322	     44.38322487	     11.51151218	    -16.09798240
      4.16000000	    -90.00000000	     90.00000000	    -90.00000000	     63.73916732	    779.08870116	    -41.57768204	     26.02379236	     37.27452826	     45.00000000	     45.00000000	      9.60558088	  -2194.52337543	  -2411.84878781	     32.36287193	    -43.84671351	   1441.16640327	    171.31151425	     12.34882161	     12.76141299	    -45.00000000	     22.73095257	     44.76748901	    -20.20662722	    -45.00000000	  -2052.77130824	  -1341.59407344	     12.23202617	    -71.95568973	   3230.33480357	     44.72967069	     11.59339855	    -15.54660220
      4.17000000	    -90.00000000	     90.00000000	    -90.00000000	     62.04758943	    779.06364843	    -41.44129595	     25.99798313	     37.25119112	     45.00000000	     45.00000000	      9.74393929	  -2193.95443106	  -2411.73857751	     32.12149091	    -43.00789627	   1441.02730976	    171.57873774	     12.16021526	     12.57043317	    -45.00000000	     22.44448059	     44.66752051	    -20.20852971	    -45.00000000	  -2053.33851189	  -1341.26565315	     11.84983550	    -72.19785794	   3230.31514236	     44.82709120	     11.39509387	    -16.33805390
      4.18000000	    -90.00000000	     90.00000000	    -90.00000000	     60.20348818	    779.03154021	    -41.29579100	     26.10343717	     37.15446731	     45.00000000	     45.00000000	     10.00413885	  -2194.09102409	  -2411.96445000	     32.53448685	    -42.43147131	   1441.25705414	    171.73104304	     12.53267192	     12.55797990	    -45.00000000	     22.35708772	     44.21682813	    -19.95766857	    -45.00000000	  -2052.84435930	  -1341.28607479	     12.11141220	    -72.57469706	   3230.46243038	     45.10268531	     11.60562677	    -15.73939979
      4.19000000	    -90.00000000	     90.00000000	    -90.00000000	     58.21846927	    778.98900493	    -41.14680566	     26.07255135	     37.11608118	     45.00000000	     45.00000000	     10.17363607	  -2193.53614298	  -2411.89823325	     32.31796979	    -41.62958749	   1441.10508495	    172.06680851	     12.32497166	     12.31218661	    -45.00000000	     22.08833652	     44.22860584	    -20.07080085	    -45.00000000	  -2053.41544934	  -1340.97125721	     11.90179905	    -72.86037781	   3230.43215240	     45.09466074	     11.36229339	    -16.56494079
